<svg width="500" height="499" viewBox="0 0 500 499" fill="none" xmlns="http://www.w3.org/2000/svg">
<path d="M153.399 498.534C142.984 498.534 135.739 488.181 139.306 478.396L299.795 38.18C304.569 25.0863 323.061 25.0123 327.939 38.0674L492.433 478.283C496.096 488.087 488.848 498.534 478.382 498.534H153.399Z" fill="black"/>
<path d="M7 498.5C3.13401 498.5 0 495.366 0 491.5V43.96C0 36.1509 10.8517 34.2057 13.5642 41.5285L150.881 412.243C153.145 418.355 161.799 418.328 164.024 412.202L300.204 37.3761C302.879 30.0131 313.783 31.9325 313.783 39.7664V491.5C313.783 495.366 310.649 498.5 306.783 498.5H7Z" fill="black"/>
<path d="M308.456 264.202C310.363 258.973 317.744 258.933 319.707 264.142L377.884 418.483C379.378 422.448 376.403 426.671 372.166 426.598L258.418 424.645C254.297 424.574 251.472 420.463 252.885 416.59L308.456 264.202Z" fill="#D9D9D9"/>
<path d="M42 281.929C42 275.255 51.2604 273.568 53.6144 279.813L105.941 418.634C107.42 422.558 104.52 426.75 100.326 426.75H48C44.6863 426.75 42 424.064 42 420.75V281.929Z" fill="#D9D9D9"/>
</svg>
