<svg width="625" height="507" viewBox="0 0 625 507" fill="none" xmlns="http://www.w3.org/2000/svg">
<path d="M0.883301 54.9082C0.883301 42.0274 18.4156 38.1957 23.7892 49.9021L225.577 489.495C229.226 497.444 223.418 506.501 214.671 506.501H12.8833C6.25588 506.501 0.883301 501.129 0.883301 494.501V54.9082Z" fill="black"/>
<path d="M365.413 59.3186C376.126 36.0228 409.235 36.0332 419.934 59.3358L605.48 463.483C614.604 483.356 600.084 506 578.216 506H206.816C184.94 506 170.42 483.341 179.56 463.466L365.413 59.3186Z" fill="black"/>
<path d="M379.393 352.777C384.742 341.106 401.327 341.111 406.669 352.785L432.281 408.759C436.827 418.694 429.566 430 418.641 430H367.375C356.446 430 349.185 418.686 353.739 408.75L379.393 352.777Z" fill="#D8D6D3"/>
<path d="M62 372.055C62 357.196 82.9039 353.963 87.3926 368.128L101.636 413.073C104.292 421.454 98.0353 430 89.2431 430H75C67.8203 430 62 424.18 62 417L62 372.055Z" fill="#D8D6D3"/>
</svg>
