<svg width="667" height="667" viewBox="0 0 667 667" fill="none" xmlns="http://www.w3.org/2000/svg">
<g clip-path="url(#clip0_8299_384)">
<path d="M0 72.917C0 32.646 32.6461 0 72.917 0H593.753C634.024 0 666.67 32.6461 666.67 72.917V156.251C666.67 173.51 652.678 187.501 635.42 187.501C618.161 187.501 604.17 173.51 604.17 156.251V72.917C604.17 67.1641 599.507 62.5003 593.753 62.5003H72.917C67.1641 62.5003 62.5003 67.1641 62.5003 72.917V593.753C62.5003 599.507 67.1641 604.17 72.917 604.17H635.42C652.678 604.17 666.67 618.161 666.67 635.42C666.67 652.678 652.678 666.67 635.42 666.67H72.917C32.646 666.67 0 634.024 0 593.753V72.917ZM343.752 239.585C361.011 239.585 375.002 253.576 375.002 270.835V437.502C375.002 479.369 363.501 510.769 339.799 530.519C317.178 549.369 289.745 552.086 270.835 552.086C253.576 552.086 239.585 538.094 239.585 520.836C239.585 503.578 253.576 489.586 270.835 489.586C285.259 489.586 294.284 487.094 299.787 482.507C304.21 478.819 312.502 468.552 312.502 437.502V270.835C312.502 253.576 326.492 239.585 343.752 239.585ZM469.823 274.173C487.269 253.403 514.615 239.585 552.086 239.585C586.874 239.585 613.12 251.487 630.811 270.202C642.666 282.744 642.107 302.523 629.566 314.379C617.024 326.234 597.245 325.677 585.39 313.134C580.811 308.292 571.686 302.085 552.086 302.085C531.223 302.085 522.111 309.1 517.682 314.372C512.228 320.862 510.419 329.002 510.419 333.335C510.419 337.668 512.228 345.808 517.682 352.298C522.111 357.57 531.223 364.585 552.086 364.585C555.24 364.585 558.286 365.052 561.153 365.921C588.782 369.854 609.666 382.19 623.932 399.173C640.353 418.723 645.837 441.836 645.837 458.336C645.837 474.836 640.353 497.948 623.932 517.498C606.486 538.269 579.14 552.086 541.669 552.086C506.882 552.086 480.636 540.182 462.944 521.469C451.09 508.928 451.648 489.148 464.19 477.29C476.732 465.436 496.511 465.994 508.365 478.536C512.944 483.377 522.069 489.586 541.669 489.586C562.532 489.586 571.645 482.569 576.074 477.298C581.528 470.807 583.336 462.669 583.336 458.336C583.336 454.002 581.528 445.865 576.074 439.373C571.645 434.102 562.532 427.085 541.669 427.085C538.515 427.085 535.469 426.619 532.603 425.748C504.973 421.815 484.09 409.481 469.823 392.497C453.402 372.946 447.919 349.835 447.919 333.335C447.919 316.835 453.402 293.724 469.823 274.173Z" fill="#D1BFA9" stroke="#D1BFA9" stroke-width="0.008"/>
</g>
<defs>
<clipPath id="clip0_8299_384">
<rect width="666.67" height="666.67" fill="white"/>
</clipPath>
</defs>
</svg>
