<svg width="668" height="668" viewBox="0 0 668 668" fill="none" xmlns="http://www.w3.org/2000/svg">
<path d="M0.666748 73.5834C0.666748 33.3126 33.3127 0.666748 73.5834 0.666748H594.417C634.688 0.666748 667.333 33.3127 667.333 73.5834V156.917C667.333 174.176 653.342 188.167 636.083 188.167C618.825 188.167 604.833 174.176 604.833 156.917V73.5834C604.833 67.8305 600.171 63.1667 594.417 63.1667H73.5834C67.8305 63.1667 63.1667 67.8305 63.1667 73.5834V594.417C63.1667 600.171 67.8305 604.833 73.5834 604.833H636.083C653.342 604.833 667.333 618.825 667.333 636.083C667.333 653.342 653.342 667.333 636.083 667.333H73.5834C33.3126 667.333 0.666748 634.688 0.666748 594.417V73.5834ZM198.583 271.5C198.583 254.241 212.575 240.25 229.833 240.25H386.083C403.342 240.25 417.333 254.241 417.333 271.5C417.333 288.759 403.342 302.75 386.083 302.75H344.417V521.5C344.417 538.758 330.426 552.75 313.167 552.75C295.908 552.75 281.917 538.758 281.917 521.5V302.75H229.833C212.575 302.75 198.583 288.759 198.583 271.5ZM470.488 274.838C487.933 254.068 515.279 240.25 552.75 240.25C587.538 240.25 613.783 252.153 631.475 270.867C643.329 283.41 642.771 303.188 630.229 315.044C617.688 326.899 597.908 326.342 586.054 313.8C581.475 308.958 572.35 302.75 552.75 302.75C531.888 302.75 522.775 309.765 518.346 315.037C512.892 321.527 511.083 329.667 511.083 334C511.083 338.333 512.892 346.473 518.346 352.963C522.775 358.235 531.888 365.25 552.75 365.25C555.904 365.25 558.95 365.717 561.817 366.586C589.446 370.519 610.329 382.855 624.596 399.838C641.017 419.388 646.5 442.5 646.5 459C646.5 475.5 641.017 498.613 624.596 518.163C607.15 538.933 579.804 552.75 542.333 552.75C507.546 552.75 481.3 540.846 463.608 522.133C451.754 509.592 452.313 489.813 464.854 477.954C477.396 466.1 497.175 466.658 509.029 479.2C513.608 484.042 522.733 490.25 542.333 490.25C563.196 490.25 572.308 483.233 576.738 477.963C582.192 471.471 584 463.333 584 459C584 454.667 582.192 446.529 576.738 440.038C572.308 434.767 563.196 427.75 542.333 427.75C539.179 427.75 536.133 427.283 533.267 426.413C505.638 422.479 484.754 410.146 470.488 393.162C454.067 373.611 448.583 350.5 448.583 334C448.583 317.5 454.067 294.39 470.488 274.838Z" fill="#EEEADF" stroke="#EEEADF" stroke-width="0.00666667"/>
</svg>
